<svg width="100" height="100" viewBox="0 0 100 100" fill="none" xmlns="http://www.w3.org/2000/svg">
<path d="M93.75 50C93.75 38.3968 89.1407 27.2688 80.9359 19.0641C72.7312 10.8594 61.6032 6.24999 50 6.24999C38.9834 6.23981 28.3685 10.3862 20.2756 17.8609C12.1827 25.3355 7.20767 35.5882 6.3442 46.5709C5.48074 57.5536 8.79244 68.4578 15.6178 77.1054C22.4432 85.7529 32.2797 91.5072 43.1625 93.2187V62.6437H32.0625V50H43.1688V40.3625C43.1688 29.4 49.7 23.3375 59.6938 23.3375C64.4813 23.3375 69.4875 24.1937 69.4875 24.1937V34.9625H63.9688C58.5313 34.9625 56.8438 38.3375 56.8438 41.7937V50H68.975L67.0375 62.6437H56.8375V93.2187C67.1282 91.5892 76.4997 86.3411 83.2662 78.4185C90.0328 70.4959 93.7503 60.4189 93.75 50Z" fill="#1877F2"/>
<path d="M67.0313 62.6437L68.9687 50H56.8375V41.7937C56.8375 38.3375 58.525 34.9625 63.9625 34.9625H69.4812V24.1875C69.4812 24.1875 64.475 23.3312 59.6875 23.3312C49.6875 23.3312 43.1625 29.3937 43.1625 40.3562V50H32.0625V62.6437H43.1687V93.2187C47.6992 93.9317 52.3133 93.9317 56.8438 93.2187V62.6437H67.0313Z" fill="white"/>
</svg>
