<svg width="98" height="40" viewBox="0 0 98 40" fill="none" xmlns="http://www.w3.org/2000/svg">
<path d="M42.1136 12.5455H44.6364L50.5682 27.0341H50.7727L56.7045 12.5455H59.2273V30H57.25V16.7386H57.0795L51.625 30H49.7159L44.2614 16.7386H44.0909V30H42.1136V12.5455ZM68.6811 30.2727C67.4197 30.2727 66.3317 29.9943 65.4169 29.4375C64.5078 28.875 63.8061 28.0909 63.3118 27.0852C62.8232 26.0739 62.5788 24.8977 62.5788 23.5568C62.5788 22.2159 62.8232 21.0341 63.3118 20.0114C63.8061 18.983 64.4936 18.1818 65.3743 17.608C66.2607 17.0284 67.2947 16.7386 68.4766 16.7386C69.1584 16.7386 69.8317 16.8523 70.4964 17.0795C71.1612 17.3068 71.7663 17.6761 72.3118 18.1875C72.8572 18.6932 73.2919 19.3636 73.6158 20.1989C73.9396 21.0341 74.1016 22.0625 74.1016 23.2841V24.1364H64.0107V22.3977H72.0561C72.0561 21.6591 71.9084 21 71.6129 20.4205C71.3232 19.8409 70.9084 19.3835 70.3686 19.0483C69.8345 18.7131 69.2038 18.5455 68.4766 18.5455C67.6754 18.5455 66.9822 18.7443 66.397 19.142C65.8175 19.5341 65.3714 20.0455 65.0589 20.6761C64.7464 21.3068 64.5902 21.983 64.5902 22.7045V23.8636C64.5902 24.8523 64.7607 25.6903 65.1016 26.3778C65.4482 27.0597 65.9283 27.5795 66.5419 27.9375C67.1555 28.2898 67.8686 28.4659 68.6811 28.4659C69.2095 28.4659 69.6868 28.392 70.1129 28.2443C70.5447 28.0909 70.9169 27.8636 71.2294 27.5625C71.5419 27.2557 71.7834 26.875 71.9538 26.4205L73.897 26.9659C73.6925 27.625 73.3487 28.2045 72.8658 28.7045C72.3828 29.1989 71.7862 29.5852 71.076 29.8636C70.3658 30.1364 69.5675 30.2727 68.6811 30.2727ZM82.8544 16.9091V18.6136H76.0703V16.9091H82.8544ZM78.0476 13.7727H80.0589V26.25C80.0589 26.8182 80.1413 27.2443 80.3061 27.5284C80.4766 27.8068 80.6925 27.9943 80.9538 28.0909C81.2209 28.1818 81.5021 28.2273 81.7976 28.2273C82.0192 28.2273 82.201 28.2159 82.343 28.1932C82.4851 28.1648 82.5987 28.142 82.6839 28.125L83.093 29.9318C82.9567 29.983 82.7663 30.0341 82.522 30.0852C82.2777 30.142 81.968 30.1705 81.593 30.1705C81.0249 30.1705 80.468 30.0483 79.9226 29.804C79.3828 29.5597 78.9339 29.1875 78.576 28.6875C78.2237 28.1875 78.0476 27.5568 78.0476 26.7955V13.7727ZM89.7322 30.3068C88.9027 30.3068 88.1499 30.1506 87.4737 29.8381C86.7976 29.5199 86.2607 29.0625 85.8629 28.4659C85.4652 27.8636 85.2663 27.1364 85.2663 26.2841C85.2663 25.5341 85.4141 24.9261 85.7095 24.4602C86.005 23.9886 86.3999 23.6193 86.8942 23.3523C87.3885 23.0852 87.9339 22.8864 88.5305 22.7557C89.1328 22.6193 89.7379 22.5114 90.3459 22.4318C91.1413 22.3295 91.7862 22.2528 92.2805 22.2017C92.7805 22.1449 93.1442 22.0511 93.3714 21.9205C93.6044 21.7898 93.7209 21.5625 93.7209 21.2386V21.1705C93.7209 20.3295 93.4908 19.6761 93.0305 19.2102C92.576 18.7443 91.8857 18.5114 90.9595 18.5114C89.9993 18.5114 89.2464 18.7216 88.701 19.142C88.1555 19.5625 87.772 20.0114 87.5504 20.4886L85.6413 19.8068C85.9822 19.0114 86.4368 18.392 87.005 17.9489C87.5788 17.5 88.2038 17.1875 88.88 17.0114C89.5618 16.8295 90.2322 16.7386 90.8913 16.7386C91.3118 16.7386 91.7947 16.7898 92.3402 16.892C92.8913 16.9886 93.4226 17.1903 93.9339 17.4972C94.451 17.804 94.88 18.267 95.2209 18.8864C95.5618 19.5057 95.7322 20.3352 95.7322 21.375V30H93.7209V28.2273H93.6186C93.4822 28.5114 93.255 28.8153 92.9368 29.1392C92.6186 29.4631 92.1953 29.7386 91.6669 29.9659C91.1385 30.1932 90.4936 30.3068 89.7322 30.3068ZM90.0391 28.5C90.8345 28.5 91.505 28.3438 92.0504 28.0312C92.6016 27.7188 93.0163 27.3153 93.2947 26.821C93.5788 26.3267 93.7209 25.8068 93.7209 25.2614V23.4205C93.6357 23.5227 93.4482 23.6165 93.1584 23.7017C92.8743 23.7812 92.5447 23.8523 92.1697 23.9148C91.8004 23.9716 91.4396 24.0227 91.0874 24.0682C90.7408 24.108 90.4595 24.142 90.2436 24.1705C89.7209 24.2386 89.2322 24.3494 88.7777 24.5028C88.3288 24.6506 87.9652 24.875 87.6868 25.1761C87.4141 25.4716 87.2777 25.875 87.2777 26.3864C87.2777 27.0852 87.5362 27.6136 88.0533 27.9716C88.576 28.3239 89.2379 28.5 90.0391 28.5Z" fill="#1877F2"/>
<path d="M33.75 24.375C33.75 18.625 30.875 12.625 27.5 12.625C25.625 12.625 24.125 13.75 21.75 17.125C24 20.625 25.375 22.75 25.375 22.75C28.375 27.5 29.375 28.5 31 28.5C32.625 28.625 33.75 27.125 33.75 24.375ZM14.125 22.25L16.25 18.75C16.75 17.875 17.375 17 17.875 16.25C16 13.375 14.5 11.875 12.625 11.875C8.875 11.875 5.875 17.5 5.875 24.5C5.875 27.125 6.75 28.625 8.5 28.625C10.25 28.625 10.875 27.5 14.125 22.25ZM19.5 13.75C22.25 10.125 24.625 8.75 27.375 8.75C33.125 8.75 37.5 16.375 37.5 24.375C37.5 29.375 35.125 32.5 31.125 32.5C28.25 32.5 26.25 31.125 22.5 24.625C22.5 24.625 21 21.875 19.875 20C19.5 20.625 19.125 21.25 18.75 22L17 25C13.625 30.75 11.75 32.625 8.375 32.625C4.5 32.625 2.375 29.375 2.375 24.25C2.5 15.75 7 8.75 12.375 8.75C15.25 8.75 17.5 11 19.5 13.75Z" fill="#1877F2"/>
</svg>
