<svg width="47" height="18" viewBox="0 0 47 18" fill="none" xmlns="http://www.w3.org/2000/svg">
<g clip-path="url(#clip0_5_272)">
<path d="M38.4545 0.715027C34.0816 0.715027 30.5386 4.25905 30.5386 8.63092C30.5386 13.0028 34.0816 16.5468 38.4545 16.5468C42.8273 16.5468 46.3704 13.0028 46.3704 8.63092C46.3704 4.25905 42.8273 0.715027 38.4545 0.715027ZM33.3175 4.00837C33.2486 3.94811 33.2063 3.86295 33.2001 3.77159C33.1938 3.68022 33.224 3.59011 33.2841 3.52101C33.3395 3.45725 33.8449 2.89579 34.5299 2.82635C35.2149 2.75692 35.7984 3.16016 35.8237 3.17652C35.899 3.22964 35.9501 3.31047 35.9657 3.40125C35.9814 3.49202 35.9603 3.58529 35.9072 3.66054C35.8541 3.73579 35.7732 3.78686 35.6825 3.80251C35.5917 3.81816 35.4984 3.79711 35.4232 3.74399C35.4208 3.74199 35.0266 3.47528 34.599 3.517C34.2495 3.55239 33.9077 3.86149 33.8055 3.97765C33.7451 4.0466 33.6597 4.08881 33.5682 4.09506C33.4767 4.10132 33.3865 4.07111 33.3172 4.01104L33.3175 4.00837ZM34.8133 7.89421C34.1707 7.85282 33.6957 7.10075 33.7525 6.21383C33.8092 5.3269 34.3767 4.6416 35.0209 4.68299C35.6652 4.72438 36.1385 5.47645 36.0818 6.36304C36.025 7.24963 35.4559 7.93527 34.8133 7.89421ZM38.4458 15.1094C37.0248 15.1054 35.8755 13.652 35.8818 11.8632C35.8882 10.0743 37.0421 8.62725 38.4631 8.63092C39.8842 8.63459 41.0335 10.088 41.0271 11.8772C41.0208 13.6664 39.8668 15.1131 38.4458 15.1094ZM42.1657 7.8151C41.5232 7.85649 40.956 7.17118 40.8993 6.28426C40.8425 5.39734 41.3172 4.64527 41.9598 4.60421C42.6024 4.56315 43.1695 5.24846 43.2266 6.13505C43.2837 7.02164 42.8083 7.77404 42.1657 7.8151ZM43.4472 3.751C43.378 3.81114 43.2878 3.84139 43.1963 3.83514C43.1048 3.82888 43.0196 3.78662 42.9592 3.71762C42.8567 3.60145 42.5149 3.29235 42.1657 3.25663C41.7381 3.21491 41.3439 3.48195 41.3416 3.48395C41.3043 3.51026 41.2622 3.52896 41.2177 3.539C41.1732 3.54904 41.1272 3.55022 41.0823 3.54247C41.0373 3.53472 40.9943 3.5182 40.9558 3.49384C40.9172 3.46948 40.8838 3.43776 40.8575 3.4005C40.8312 3.36324 40.8125 3.32117 40.8025 3.27668C40.7925 3.23219 40.7913 3.18616 40.799 3.14121C40.8068 3.09626 40.8233 3.05329 40.8477 3.01473C40.872 2.97617 40.9037 2.94278 40.941 2.91648C40.9654 2.89946 41.5462 2.49689 42.2345 2.56632C42.9228 2.63575 43.4252 3.19721 43.4803 3.26097C43.5105 3.29521 43.5336 3.3351 43.5483 3.37834C43.5631 3.42158 43.5691 3.46731 43.566 3.51288C43.5629 3.55845 43.5508 3.60296 43.5304 3.64383C43.5101 3.68471 43.4818 3.72113 43.4472 3.751Z" fill="#FFDE6E"/>
<path d="M38.4632 8.63088C37.0422 8.62721 35.8866 10.0743 35.8819 11.8631C35.8772 13.652 37.0249 15.1054 38.4459 15.1094C39.8669 15.1134 41.0225 13.666 41.0272 11.8772C41.0319 10.0883 39.8842 8.63455 38.4632 8.63088ZM41.9595 4.60417C41.3169 4.64523 40.8419 5.39763 40.899 6.28422C40.9561 7.17081 41.5229 7.85645 42.1655 7.81506C42.8081 7.77367 43.2831 7.0216 43.2263 6.13501C43.1696 5.24842 42.6028 4.56278 41.9595 4.60417ZM35.0193 4.68295C34.3768 4.64156 33.8096 5.3272 33.7525 6.21379C33.6955 7.10038 34.1708 7.85278 34.8134 7.89417C35.456 7.93556 36.0231 7.24992 36.0819 6.363C36.1406 5.47607 35.6619 4.72401 35.0193 4.68295ZM33.806 3.97628C33.9081 3.86011 34.2499 3.55101 34.5994 3.51563C35.027 3.4739 35.4212 3.74061 35.4236 3.74261C35.4988 3.79573 35.5921 3.81678 35.6829 3.80113C35.7736 3.78548 35.8545 3.73441 35.9076 3.65916C35.9607 3.58391 35.9818 3.49064 35.9661 3.39987C35.9505 3.3091 35.8994 3.22826 35.8242 3.17514C35.7998 3.15812 35.2186 2.75555 34.5303 2.82498C33.842 2.89441 33.34 3.45587 33.2845 3.51963C33.2246 3.58896 33.1945 3.67924 33.2009 3.77069C33.2074 3.86215 33.2498 3.94732 33.3189 4.00756C33.388 4.0678 33.4782 4.09819 33.5697 4.09208C33.6611 4.08596 33.7465 4.04384 33.807 3.97494L33.806 3.97628ZM42.2356 2.57029C41.5473 2.50085 40.9671 2.90409 40.9421 2.92045C40.9048 2.94675 40.8731 2.98013 40.8487 3.01869C40.8244 3.05725 40.8079 3.10023 40.8001 3.14518C40.7924 3.19012 40.7935 3.23615 40.8036 3.28064C40.8136 3.32513 40.8323 3.36721 40.8586 3.40447C40.8849 3.44173 40.9183 3.47344 40.9569 3.4978C40.9954 3.52216 41.0384 3.53869 41.0834 3.54644C41.1283 3.55419 41.1743 3.55301 41.2188 3.54297C41.2633 3.53293 41.3054 3.51422 41.3426 3.48792C41.345 3.48592 41.7392 3.21887 42.1668 3.2606C42.516 3.29632 42.8578 3.60542 42.9603 3.72158C43.0214 3.78797 43.1061 3.82788 43.1962 3.83281C43.2863 3.83773 43.3748 3.80729 43.4429 3.74796C43.5109 3.68864 43.5531 3.6051 43.5605 3.51514C43.5678 3.42518 43.5398 3.33589 43.4823 3.26627C43.4263 3.19984 42.9206 2.63705 42.2356 2.57029Z" fill="#102236"/>
</g>
<g clip-path="url(#clip1_5_272)">
<path d="M23.5 16.7067C28.2327 16.7067 32.0693 13.0528 32.0693 8.54546C32.0693 4.03813 28.2327 0.384216 23.5 0.384216C18.7673 0.384216 14.9307 4.03813 14.9307 8.54546C14.9307 13.0528 18.7673 16.7067 23.5 16.7067Z" fill="#F25268"/>
<path d="M27.913 5.2628C26.4262 3.31404 23.4999 4.46367 23.4999 6.44248C23.4999 4.46334 20.5732 3.31337 19.0861 5.26247C17.5495 7.27699 19.0644 10.8067 23.4999 12.8342C27.9351 10.8067 29.4503 7.27699 27.913 5.2628Z" fill="white"/>
</g>
<path d="M8.54549 0.314758C3.99971 0.314758 0.314819 3.99965 0.314819 8.54543C0.314819 13.0912 3.99971 16.7761 8.54549 16.7761C13.0913 16.7761 16.7762 13.0912 16.7762 8.54543C16.7762 3.99965 13.0913 0.314758 8.54549 0.314758ZM6.15878 12.2484C6.15878 12.462 5.97184 12.6366 5.74352 12.6366H4.6483C4.41964 12.6366 4.23271 12.462 4.23271 12.2484V8.91729C4.23271 8.70399 4.41964 8.52908 4.6483 8.52908H5.74352C5.97184 8.52908 6.15878 8.70399 6.15878 8.91729V12.2484ZM12.5846 10.1043C12.5208 10.1706 12.473 10.2505 12.4447 10.338C12.4165 10.4255 12.4086 10.5183 12.4217 10.6094C12.4524 10.822 12.429 11.1101 12.1706 11.3417C12.0932 11.4132 12.0351 11.5031 12.0019 11.6031C11.9687 11.7031 11.9614 11.8099 11.9807 11.9135C12.0475 12.3141 11.8425 12.8816 10.0653 12.7978L7.75203 12.7427C7.73201 12.7427 7.71231 12.7407 7.69228 12.7384C7.50168 12.7147 6.50527 12.5715 6.58071 12.1288L6.5767 9.03112C6.57668 8.94966 6.59279 8.86899 6.6241 8.79379L7.93062 6.23582C7.95033 6.19716 7.96063 6.15438 7.96066 6.11098V4.91161C7.95977 4.80479 7.98708 4.69962 8.03983 4.60673C8.09257 4.51383 8.1689 4.4365 8.26109 4.38253C8.45336 4.27271 8.72208 4.21562 9.01983 4.4346C9.605 4.86855 9.61902 5.10222 9.61902 5.10222C9.61902 5.10222 9.88373 5.88299 9.77223 6.59366C9.75828 6.68168 9.76358 6.77167 9.78779 6.85744C9.812 6.9432 9.85453 7.02269 9.91245 7.09042C9.97037 7.15814 10.0423 7.21249 10.1233 7.24971C10.2042 7.28694 10.2923 7.30614 10.3814 7.30601H11.7127C11.7342 7.30595 11.7557 7.30706 11.7771 7.30935C11.9804 7.33171 12.905 7.4906 12.5799 8.52807C12.551 8.62012 12.5451 8.71782 12.5625 8.8127C12.58 8.90758 12.6203 8.99676 12.68 9.07251C12.8579 9.29516 13.0068 9.66869 12.5846 10.1043Z" fill="#4080FF"/>
<path d="M12.5798 8.52811C12.905 7.49064 11.979 7.33175 11.777 7.30938C11.7556 7.3071 11.7341 7.30598 11.7126 7.30604H10.3814C10.2925 7.306 10.2047 7.28672 10.1239 7.24951C10.0432 7.2123 9.97145 7.15806 9.91366 7.09051C9.85588 7.02295 9.8134 6.94369 9.78915 6.85816C9.7649 6.77263 9.75946 6.68287 9.77319 6.59504C9.88468 5.88436 9.61998 5.10359 9.61998 5.10359C9.61998 5.10359 9.60595 4.86692 9.02079 4.43597C8.72304 4.21633 8.45332 4.27408 8.26205 4.3839C8.16986 4.43787 8.09353 4.5152 8.04079 4.6081C7.98804 4.70099 7.96073 4.80616 7.96162 4.91298V6.11235C7.96159 6.15575 7.95129 6.19853 7.93158 6.2372L6.62506 8.79516C6.59375 8.87037 6.57764 8.95103 6.57766 9.03249L6.58166 12.1302C6.50622 12.5715 7.50264 12.7161 7.69324 12.7398C7.71327 12.7421 7.73296 12.7434 7.75299 12.7441L10.0663 12.7992C11.8435 12.8816 12.0494 12.3138 11.9817 11.9149C11.9623 11.8113 11.9696 11.7045 12.0028 11.6045C12.0361 11.5045 12.0941 11.4145 12.1716 11.3431C12.43 11.1128 12.4533 10.8234 12.4226 10.6107C12.4092 10.5196 12.4169 10.4266 12.4449 10.3388C12.473 10.251 12.5207 10.1708 12.5845 10.1043C13.0061 9.66873 12.8572 9.2952 12.6807 9.07255C12.6208 8.99686 12.5803 8.9077 12.5628 8.81282C12.5452 8.71794 12.5511 8.62021 12.5798 8.52811ZM5.74348 8.52911H4.64826C4.4196 8.52911 4.23267 8.70403 4.23267 8.91733V12.2484C4.23267 12.462 4.4196 12.6366 4.64826 12.6366H5.74348C5.9718 12.6366 6.15873 12.462 6.15873 12.2484V8.91733C6.15873 8.70403 5.9718 8.52911 5.74348 8.52911Z" fill="white"/>
<defs>
<clipPath id="clip0_5_272">
<rect width="17.0909" height="17.0909" fill="white" transform="translate(29.9091)"/>
</clipPath>
<clipPath id="clip1_5_272">
<rect width="17.9455" height="17.0909" fill="white" transform="translate(14.5272)"/>
</clipPath>
</defs>
</svg>
